{"title":"Perriers Bounty.BRRip.H264.FEEL-FREE","uid":5697604,"size":1187954512,"categoryP":"video","categoryS":"movies","magnet":"?xt=urn:btih:90416cb0e6c37437a6fbca60a8b0ddc6c52b57a8&amp;dn=Perriers+Bounty.BRRip.H264.FEEL-FREE&amp;tr=udp%3A%2F%2Ftracker.openbittorrent.com%3A80&amp;tr=udp%3A%2F%2Fopen.demonii.com%3A1337&amp;tr=udp%3A%2F%2Ftracker.coppersurfer.tk%3A6969&amp;tr=udp%3A%2F%2Fexodus.desync.com%3A6969","seeders":0,"leechers":1,"uploader":"neon","files":9,"time":1279367633,"description":"Genre:Comedy | Crime | Drama\nLanguage:English\nIMDb:http://www.imdb.com/title/tt1003034/\nSource:BluRay.x264-REFiNED\nEncoder: Tony2\n..............................................\nGeneral\nComplete name : Perriers.Bounty.BRRip.H264.FEEL-FREE\nFormat : MPEG-4\nFormat profile : Base Media\nCodec ID : isom\nFile size : 1.10 GiB\nDuration : 1h 27mn\nOverall bit rate : 1 804 Kbps\n...............................................\nID : 1\nFormat : AVC\nFormat/Info : Advanced Video Codec\nFormat profile : &lt;a class=&quot;__cf_email__&quot; href=&quot;/cdn-cgi/l/email-protection&quot; data-cfemail=&quot;7b391a081e1712151e3b374e554a&quot;&gt;[email&amp;#160;protected]&lt;/a&gt;&lt;script cf-hash='f9e31' type=&quot;text/javascript&quot;&gt;\n/* &lt;![CDATA[ */!function(){try{var t=&quot;currentScript&quot;in document?document.currentScript:function(){for(var t=document.getElementsByTagName(&quot;script&quot;),e=t.length;e--;)if(t[e].getAttribute(&quot;cf-hash&quot;))return t[e]}();if(t&amp;&amp;t.previousSibling){var e,r,n,i,c=t.previousSibling,a=c.getAttribute(&quot;data-cfemail&quot;);if(a){for(e=&quot;&quot;,r=parseInt(a.substr(0,2),16),n=2;a.length-n;n+=2)i=parseInt(a.substr(n,2),16)^r,e+=String.fromCharCode(i);e=document.createTextNode(e),c.parentNode.replaceChild(e,c)}}}catch(u){}}();/* ]]&gt; */&lt;/script&gt;\nFormat settings, CABAC : No\nFormat settings, ReFrames : 1 frame\nCodec ID : avc1\nCodec ID/Info : Advanced Video Coding\nDuration : 1h 27mn\nBit rate mode : Variable\nBit rate : 1 558 Kbps\nWidth : 720 pixels\nHeight : 304 pixels\nDisplay aspect ratio : 2.35:1\nFrame rate mode : Constant\nFrame rate : 23.976 fps\nResolution : 24 bits\nColorimetry : 4:2:0\nScan type : Progressive\nBits/(Pixel*Frame) : 0.297\nStream size : 977 MiB (86%)\n...............................................\n\nAudio\nID : 2\nFormat : AAC\nFormat/Info : Advanced Audio Codec\nFormat version : Version 4\nFormat profile : LC\nFormat settings, SBR : No\nCodec ID : 40\nDuration : 1h 27mn\nBit rate mode : Variable\nBit rate : 242 Kbps\nChannel(s) : 6 channels\nChannel positions : Front: L C R, Rear: L R, LFE\nSampling rate : 48.0 KHz\nResolution : 16 bits\nStream size : 151 MiB (13%)\n................................................\nPlot:\nA gangster named Perrier looks to exact his revenge on a trio of fugitives responsible for the accidental death of one of his cronies","torrent":{"xt":"urn:btih:90416cb0e6c37437a6fbca60a8b0ddc6c52b57a8","amp;dn":"Perriers+Bounty.BRRip.H264.FEEL-FREE","amp;tr":["udp%3A%2F%2Ftracker.openbittorrent.com%3A80","udp%3A%2F%2Fopen.demonii.com%3A1337","udp%3A%2F%2Ftracker.coppersurfer.tk%3A6969","udp%3A%2F%2Fexodus.desync.com%3A6969"],"infoHash":"90416cb0e6c37437a6fbca60a8b0ddc6c52b57a8","infoHashBuffer":{"type":"Buffer","data":[144,65,108,176,230,195,116,55,166,251,202,96,168,176,221,198,197,43,87,168]},"announce":[],"urlList":[]}}